# xmcd
#
# Track frame offsets: 
#        150
#        10332
#        22967
#        37535
#        47695
#        58180
#        73057
#        90155
#        106217
#        116822
#        128442
#        142610
#        155565
#        170632
#        189662
#        209055
#        227032
#        239552
#        253175
#        264567
#
# Disc length: 4030 seconds
#
# Revision: 10
# Processed by: cddbd v1.5.2PL0 Copyright (c) Steve Scherf et al.
# Submitted via: ExactAudioCopyFreeDBPlugin 1.0
#
DISCID=100fbc14
DTITLE=John Mayall - The Best of John Mayall and the Bluesbreakers - A
DTITLE=s It All Began 1964-69
DYEAR=1997
DGENRE=Blues
TTITLE0=Crawling Up A Hill
TTITLE1=Mr James
TTITLE2=Heartache (live)
TTITLE3=Crocodile Walk
TTITLE4=Blues City Shakedown
TTITLE5=Lonely Years
TTITLE6=Bernard Jenkins
TTITLE7=All Your Love
TTITLE8=Parchman Farm
TTITLE9=Looking Back
TTITLE10=A Hard Road
TTITLE11=Eagle Eye
TTITLE12=Double Trouble
TTITLE13=Broken Wings
TTITLE14=The Death Of J.B. Lenoir
TTITLE15=Me And My Woman
TTITLE16=Suspicions (Part One)
TTITLE17=Picture On The Wall
TTITLE18=Miss James
TTITLE19=Start Walkin' (live)
EXTD=Digitally Remastered 1998 Verbatim - AZO
EXTT0=
EXTT1=
EXTT2=
EXTT3=
EXTT4=
EXTT5=
EXTT6=
EXTT7=
EXTT8=
EXTT9=
EXTT10=
EXTT11=
EXTT12=
EXTT13=
EXTT14=
EXTT15=
EXTT16=
EXTT17=
EXTT18=
EXTT19=
PLAYORDER=
